<?xml version="1.0" encoding="UTF-8" standalone="no"?>
<!-- Created with Inkscape (http://www.inkscape.org/) -->

<svg
   xmlns:dc="http://purl.org/dc/elements/1.1/"
   xmlns:cc="http://creativecommons.org/ns#"
   xmlns:rdf="http://www.w3.org/1999/02/22-rdf-syntax-ns#"
   xmlns:svg="http://www.w3.org/2000/svg"
   xmlns="http://www.w3.org/2000/svg"
   xmlns:sodipodi="http://sodipodi.sourceforge.net/DTD/sodipodi-0.dtd"
   xmlns:inkscape="http://www.inkscape.org/namespaces/inkscape"
   width="136.53334"
   height="136.53334"
   id="svg3512"
   version="1.1"
   inkscape:version="0.92.1 unknown"
   inkscape:export-filename="/home/edwin/Work/odoo/odoo/addons-funkring/fpos/static/description/icon.png"
   inkscape:export-xdpi="90"
   inkscape:export-ydpi="90"
   sodipodi:docname="icon.svg">
  <defs
     id="defs3514" />
  <sodipodi:namedview
     id="base"
     pagecolor="#ffffff"
     bordercolor="#666666"
     borderopacity="1.0"
     inkscape:pageopacity="0.0"
     inkscape:pageshadow="2"
     inkscape:zoom="2.8"
     inkscape:cx="15.458049"
     inkscape:cy="36.237091"
     inkscape:document-units="px"
     inkscape:current-layer="g3573"
     showgrid="false"
     inkscape:window-width="1920"
     inkscape:window-height="1028"
     inkscape:window-x="0"
     inkscape:window-y="0"
     inkscape:window-maximized="1" />
  <metadata
     id="metadata3517">
    <rdf:RDF>
      <cc:Work
         rdf:about="">
        <dc:format>image/svg+xml</dc:format>
        <dc:type
           rdf:resource="http://purl.org/dc/dcmitype/StillImage" />
        <dc:title />
      </cc:Work>
    </rdf:RDF>
  </metadata>
  <g
     inkscape:label="Ebene 1"
     inkscape:groupmode="layer"
     id="layer1"
     transform="translate(0,-985.98633)">
    <g
       id="g3573">
      <g
         id="g4141">
        <g
           id="g4107">
          <g
             id="g4074">
            <g
               id="g4042">
              <g
                 id="g4011">
                <g
                   id="g3981">
                  <g
                     id="g3952">
                    <g
                       id="g3924">
                      <g
                         id="g3897">
                        <g
                           id="g3871">
                          <g
                             id="g3846">
                            <g
                               id="g3822">
                              <g
                                 id="g3799">
                                <g
                                   id="g3777">
                                <g
                                   id="g3756">
                                <g
                                   id="g3736">
                                <g
                                   id="g3717">
                                <g
                                   id="g3699">
                                <g
                                   id="g3682">
                                <g
                                   id="g3666">
                                <g
                                   id="g3651">
                                <g
                                   id="g3637">
                                <g
                                   id="g3624">
                                <g
                                   id="g3612">
                                <g
                                   id="g3601">
                                <g
                                   id="g3591">
                                <g
                                   id="g3582">
                                <g
                                   id="g3549">
                                <g
                                   id="g3542">
                                <g
                                   id="g3536">
                                <g
                                   transform="matrix(3.0359423,0,0,3.0359423,-782.24944,-2664.4175)"
                                   id="g3531">
                                <path
                                   style="fill:#80b71b;stroke-width:1.06666672"
                                   inkscape:connector-curvature="0"
                                   id="path11166"
                                   d="m 279.5447,1209.8183 c -0.44373,0.019 -0.85653,0.2987 -1.02186,0.7403 -0.22187,0.5877 0.0811,1.2587 0.66986,1.4805 l 3.59467,1.3398 c 0.5888,0.2218 1.2608,-0.081 1.4816,-0.6699 0.16533,-0.4416 0.0384,-0.9291 -0.28267,-1.2341 -0.10666,-0.1024 -0.24106,-0.1558 -0.3872,-0.2112 l -3.59466,-1.375 c -0.14827,-0.056 -0.31254,-0.078 -0.45974,-0.07 z m 6.34454,2.9248 c -0.288,0.04 -0.5504,0.208 -0.74027,0.4587 -0.37867,0.5003 -0.28907,1.2053 0.2112,1.5861 l 3.06667,2.3264 c 0.50026,0.3808 1.20533,0.2891 1.58613,-0.2112 0.3328,-0.4373 0.31253,-1.0474 -0.0352,-1.4442 -0.0501,-0.058 -0.11307,-0.093 -0.176,-0.1408 l -3.06667,-2.3264 c -0.25173,-0.192 -0.56,-0.287 -0.84586,-0.2486 z m 5.56906,4.6528 c -0.25173,-0.011 -0.51946,0.08 -0.73813,0.2464 -0.50133,0.3808 -0.59413,1.0859 -0.2112,1.5862 l 2.3616,3.0666 c 0.3808,0.5003 1.08693,0.5931 1.58613,0.2112 0.50027,-0.3808 0.592,-1.0858 0.2112,-1.5861 l -2.32853,-3.0667 c -0.0469,-0.063 -0.1184,-0.1258 -0.176,-0.176 -0.19947,-0.1738 -0.4512,-0.2741 -0.70507,-0.2816 z m 3.80694,5.9211 c -0.112,0.011 -0.24427,0.029 -0.35307,0.07 -0.58773,0.2219 -0.89067,0.8565 -0.66987,1.4443 l 1.37494,3.6309 c 0.22186,0.5877 0.8576,0.8555 1.44426,0.6347 0.58987,-0.2219 0.89174,-0.8576 0.66987,-1.4443 l -1.33867,-3.5957 c -0.0565,-0.1472 -0.14613,-0.2806 -0.24533,-0.3872 -0.22933,-0.2411 -0.54827,-0.3734 -0.88213,-0.3531 z" />
                                <path
                                   style="fill:#000000;fill-opacity:1;stroke-width:1.06666672"
                                   inkscape:connector-curvature="0"
                                   id="rect4795"
                                   d="m 265.93084,1205.6818 c -1.0592,0 -1.904,0.8448 -1.904,1.904 v 7.0496 c 0,0.024 0,0.047 0,0.07 0,0.013 0,0.022 0,0.035 v 20.6197 c 0,0.5462 0.38933,0.9163 0.91626,0.9163 h 28.4096 c 0.56747,0 0.95254,-0.4491 0.95254,-0.9515 0,-0.5845 0,0.4779 0,-0.1056 0,-11.5797 -8.73387,-21.0165 -19.94987,-22.065 v -5.5691 c 0,-1.0592 -0.87787,-1.904 -1.93707,-1.904 z m 2.9248,2.0448 h 2.5728 c 0.31146,0 0.5632,0.2923 0.5632,0.6347 v 4.1237 c 0,0.3424 -0.25174,0.5995 -0.5632,0.5995 h -2.5728 c -0.31147,0 -0.5632,-0.2571 -0.5632,-0.5995 v -4.1237 c 0,-0.3424 0.25173,-0.6347 0.5632,-0.6347 z" />
                                <path
                                   style="fill:#80b71b;stroke-width:1.06666672"
                                   inkscape:connector-curvature="0"
                                   id="rect6937-8"
                                   sodipodi:nodetypes="ccccccccc"
                                   d="m 263.4967,1238.3879 h 33.30347 c 0.88747,0 1.6032,0.7339 1.6032,1.6438 v 2.4074 c 0,0.9099 -0.71573,1.6427 -1.6032,1.6427 H 263.4967 c -0.88746,0 -1.60213,-0.7328 -1.60213,-1.6427 v -2.4074 c 0,-0.911 0.71467,-1.6438 1.60213,-1.6438 z" />
                                </g>
                                </g>
                                </g>
                                </g>
                                </g>
                                </g>
                                </g>
                                </g>
                                </g>
                                </g>
                                </g>
                                </g>
                                </g>
                                </g>
                                </g>
                                </g>
                                </g>
                                </g>
                              </g>
                            </g>
                          </g>
                        </g>
                      </g>
                    </g>
                  </g>
                </g>
              </g>
            </g>
          </g>
        </g>
      </g>
    </g>
  </g>
</svg>
