<?xml version="1.0" encoding="UTF-8" standalone="no"?>
<svg
   xmlns:dc="http://purl.org/dc/elements/1.1/"
   xmlns:cc="http://creativecommons.org/ns#"
   xmlns:rdf="http://www.w3.org/1999/02/22-rdf-syntax-ns#"
   xmlns:svg="http://www.w3.org/2000/svg"
   xmlns="http://www.w3.org/2000/svg"
   xmlns:sodipodi="http://sodipodi.sourceforge.net/DTD/sodipodi-0.dtd"
   xmlns:inkscape="http://www.inkscape.org/namespaces/inkscape"
   width="128"
   height="128"
   viewBox="0 0 13.1072 13.108433"
   preserveAspectRatio="xMidYMid"
   version="1.1"
   id="svg3919"
   sodipodi:docname="icon.svg"
   inkscape:version="0.92.2 (unknown)"
   inkscape:export-filename="/home/martin/Work/odoo/addons-funkring-extra/woocommerce/static/description/icon.png"
   inkscape:export-xdpi="72.57"
   inkscape:export-ydpi="72.57">
  <metadata
     id="metadata3925">
    <rdf:RDF>
      <cc:Work
         rdf:about="">
        <dc:format>image/svg+xml</dc:format>
        <dc:type
           rdf:resource="http://purl.org/dc/dcmitype/StillImage" />
        <dc:title />
      </cc:Work>
    </rdf:RDF>
  </metadata>
  <defs
     id="defs3923" />
  <sodipodi:namedview
     pagecolor="#ffffff"
     bordercolor="#666666"
     borderopacity="1"
     objecttolerance="10"
     gridtolerance="10"
     guidetolerance="10"
     inkscape:pageopacity="0"
     inkscape:pageshadow="2"
     inkscape:window-width="640"
     inkscape:window-height="480"
     id="namedview3921"
     showgrid="false"
     units="px"
     width="128mm"
     inkscape:zoom="0.88601332"
     inkscape:cx="577.62701"
     inkscape:cy="-526.31958"
     inkscape:current-layer="svg3919" />
  <g
     id="g4088"
     transform="matrix(0.04197166,0,0,0.04197166,1.1812227,9.2277723)"
     style="stroke-width:23.82559776">
    <path
       style="fill:#9b5c8f;stroke-width:23.82559776"
       inkscape:connector-curvature="0"
       id="path3915"
       d="m 23.759,-139.89157 h 208.378 c 13.188,0 23.863,10.675 23.863,23.863 v 79.540997 c 0,13.188 -10.675,23.863 -23.863,23.863 H 157.41 l 10.257,25.118 -45.109,-25.118 H 23.863 c -13.187,0 -23.862,-10.675 -23.862,-23.863 v -79.540997 c -0.105,-13.083 10.569,-23.863 23.758,-23.863 z" />
    <path
       style="fill:#ffffff;stroke-width:23.82559776"
       inkscape:connector-curvature="0"
       id="path3917"
       d="m 14.578,-118.14157 c 1.457,-1.978 3.642,-3.018 6.556,-3.226 5.308,-0.417 8.326,2.08 9.054,7.492 3.226,21.749997 6.764,40.169997 10.51,55.258997 l 22.79,-43.394997 c 2.082,-3.955 4.684,-6.036 7.806,-6.244 4.579,-0.312 7.388,2.601 8.533,8.740997 2.602,13.84 5.932,25.6 9.886,35.59 2.706,-26.432 7.285,-45.475997 13.737,-57.234997 1.56,-2.914 3.85,-4.371 6.868,-4.58 2.394,-0.207 4.579,0.521 6.556,2.082 1.977,1.561 3.018,3.538 3.226,5.932 0.104,1.873 -0.208,3.434 -1.04,4.995 -4.059,7.493 -7.39,20.084997 -10.095,37.566997 -2.601,16.963 -3.538,30.18 -2.914,39.65 0.209,2.6 -0.208,4.89 -1.248,6.868 -1.25,2.289 -3.122,3.538 -5.516,3.746 -2.706,0.208 -5.515,-1.04 -8.221,-3.85 -9.678,-9.887 -17.379,-24.664 -22.998,-44.332 -6.765,13.32 -11.76,23.31 -14.986,29.97 -6.14,11.76 -11.343,17.796 -15.714,18.108 -2.81,0.208 -5.203,-2.186 -7.284,-7.18 -5.307,-13.633 -11.031,-39.962 -17.17,-78.985997 -0.417,-2.706 0.207,-5.1 1.664,-6.972 z m 223.636,16.338 c -3.746,-6.556 -9.262,-10.51 -16.65,-12.072 -1.978,-0.416 -3.85,-0.624 -5.62,-0.624 -9.99,0 -18.107,5.203 -24.455,15.609997 -5.412,8.845 -8.117,18.627 -8.117,29.346 0,8.013 1.665,14.881 4.995,20.605 3.746,6.556 9.262,10.51 16.65,12.071 1.977,0.417 3.85,0.625 5.62,0.625 10.094,0 18.211,-5.203 24.455,-15.61 5.411,-8.95 8.117,-18.732 8.117,-29.45 0.104,-8.117 -1.665,-14.882 -4.995,-20.500997 z m -13.112,28.825997 c -1.457,6.868 -4.059,11.967 -7.91,15.401 -3.017,2.706 -5.827,3.85 -8.428,3.33 -2.498,-0.52 -4.58,-2.705 -6.14,-6.764 -1.25,-3.226 -1.873,-6.452 -1.873,-9.47 0,-2.601 0.208,-5.203 0.728,-7.596 0.937,-4.267 2.706,-8.43 5.515,-12.384 3.435,-5.1 7.077,-7.18 10.823,-6.452 2.498,0.52 4.58,2.706 6.14,6.764 1.249,3.226 1.873,6.452 1.873,9.47 0,2.706 -0.208,5.307 -0.728,7.7 z m -52.033,-28.825997 c -3.746,-6.556 -9.366,-10.51 -16.65,-12.072 -1.977,-0.416 -3.85,-0.624 -5.62,-0.624 -9.99,0 -18.107,5.203 -24.455,15.609997 -5.411,8.845 -8.117,18.627 -8.117,29.346 0,8.013 1.665,14.881 4.995,20.605 3.746,6.556 9.262,10.51 16.65,12.071 1.978,0.417 3.85,0.625 5.62,0.625 10.094,0 18.211,-5.203 24.455,-15.61 5.412,-8.95 8.117,-18.732 8.117,-29.45 0,-8.117 -1.665,-14.882 -4.995,-20.500997 z m -13.216,28.825997 c -1.457,6.868 -4.059,11.967 -7.909,15.401 -3.018,2.706 -5.828,3.85 -8.43,3.33 -2.497,-0.52 -4.578,-2.705 -6.14,-6.764 -1.248,-3.226 -1.872,-6.452 -1.872,-9.47 0,-2.601 0.208,-5.203 0.728,-7.596 0.937,-4.267 2.706,-8.43 5.516,-12.384 3.434,-5.1 7.076,-7.18 10.822,-6.452 2.498,0.52 4.58,2.706 6.14,6.764 1.25,3.226 1.873,6.452 1.873,9.47 0.105,2.706 -0.208,5.307 -0.728,7.7 z" />
  </g>
</svg>
